<svg width="64" height="64" viewBox="0 0 64 64" fill="none" xmlns="http://www.w3.org/2000/svg">
<g clip-path="url(#clip0_177_989)">
<path fill-rule="evenodd" clip-rule="evenodd" d="M0 32.0003C0 32.0003 0 41.7519 0 48.0004C0 54.2488 0 64.0005 0 64.0005L32.0312 63.969L64.0625 63.9375L64.094 31.9688L64.1255 0H32.0628H0V16.0001V32.0003ZM0.0615 32.0625C0.0615 49.6625 0.076 56.8439 0.09375 48.0213C0.1115 39.1985 0.1115 24.7985 0.09375 16.0212C0.076 7.24387 0.0615 14.4625 0.0615 32.0625ZM29.944 9.31863C29.559 9.5195 19.3494 19.7923 18.9696 20.3611C18.6816 20.7924 18.6934 21.1443 19.0091 21.5456L19.2681 21.875H21.6934H24.1185L24.153 30.7188L24.1875 39.5625L24.4651 40.0816C24.6179 40.3673 24.9554 40.777 25.2151 40.9922C26.0805 41.7091 26.5527 41.7709 30.8412 41.7269C34.5039 41.6894 34.7114 41.6746 35.1875 41.4178C35.842 41.0645 36.301 40.5685 36.6149 39.875C36.8631 39.3265 36.8696 39.0947 36.8722 30.5938L36.875 21.875H39.3125C41.5834 21.875 41.7671 21.8579 42 21.625C42.1569 21.4681 42.25 21.2084 42.25 20.9275C42.25 20.5141 42.0418 20.2646 39.511 17.6462C35.425 13.4189 31.4896 9.55512 31.0375 9.32687C30.5433 9.0775 30.4086 9.07638 29.944 9.31863ZM46.0025 36.0312C44.8891 36.6003 44.9459 36.2681 44.875 42.6296C44.8219 47.3989 44.7844 48.2681 44.625 48.4195C44.4659 48.5707 42.3715 48.6065 30.7784 48.6566C15.6511 48.7219 16.4475 48.7612 16.223 47.9375C16.1669 47.7313 16.1546 45.2562 16.1957 42.4375C16.266 37.627 16.2566 37.2858 16.0416 36.8769C15.6645 36.1599 15.0084 35.8795 13.702 35.877C13.0912 35.8759 12.3772 35.9392 12.1152 36.0176C11.4747 36.2096 10.8003 36.7865 10.4776 37.4184C10.2157 37.9314 10.2129 38.0221 10.2375 45.1875C10.2615 52.1946 10.2708 52.4553 10.5166 52.9674C10.8758 53.7156 11.775 54.4683 12.5516 54.6705C13.0661 54.8046 16.5623 54.8339 30.875 54.8244L48.5625 54.8125L49.0625 54.5441C49.6885 54.2081 50.2971 53.6314 50.5885 53.0976C50.7983 52.7135 50.8096 52.2114 50.7668 45.1875C50.7168 36.975 50.7419 37.2487 49.9706 36.5291C49.1553 35.7685 47.037 35.5026 46.0025 36.0312Z" fill="black"/>
</g>
<defs>
<clipPath id="clip0_177_989">
<rect width="64" height="64" rx="9" fill="white"/>
</clipPath>
</defs>
</svg>
